# xmcd CD database file
#
# Track frame offsets:
#	150
#	12342
#	25710
#	36092
#	48700
#	60982
#	73380
#	86550
#
# Disc length: 1310 seconds
#
# Revision: 2
# Processed by: cddbd v1.5.1PL0 Copyright (c) Steve Scherf et al.
# Submitted via: jetAudio 5
#
DISCID=65051c08
DTITLE=Little Willie John - Original Blues
DYEAR=1900
DGENRE=
TTITLE0=Fever
TTITLE1=All Around The World
TTITLE2=Need Your Love So Bad
TTITLE3=Home At Last
TTITLE4=Talk To Me, Talk To Me
TTITLE5=Take My Love(I Want To Give It All To You)
TTITLE6=Sleep
TTITLE7=Let Them Talk
EXTD=
EXTT0=
EXTT1=
EXTT2=
EXTT3=
EXTT4=
EXTT5=
EXTT6=
EXTT7=
PLAYORDER=
